<svg width="200" height="200" viewBox="0 0 200 200" fill="none" xmlns="http://www.w3.org/2000/svg">
<path d="M173.631 86.6028C173.218 85.6331 173.628 84.5094 174.569 84.0342L178.816 81.8885C180.009 81.2856 180.287 79.7042 179.369 78.7314L176.043 75.2033C175.317 74.4331 175.317 73.2304 176.043 72.4599L179.281 69.0218C180.198 68.0488 179.92 66.4679 178.727 65.8652L174.363 63.661C173.421 63.1851 173.011 62.0589 173.427 61.0885L175.284 56.7509C175.809 55.5249 175.01 54.1382 173.686 53.9781L168.837 53.3917C167.791 53.2652 167.023 52.3488 167.081 51.2966L167.34 46.5704C167.413 45.2387 166.187 44.2099 164.888 44.5133L160.134 45.6239C159.107 45.8637 158.071 45.2655 157.765 44.2566L156.392 39.7291C156.005 38.453 154.502 37.9057 153.385 38.6346L149.291 41.3072C148.41 41.882 147.235 41.6767 146.601 40.8375L143.708 37.0053C142.907 35.9433 141.311 35.9458 140.512 37.0104L137.578 40.9226C136.947 41.7641 135.772 41.973 134.89 41.4005L130.88 38.7992C129.765 38.0758 128.268 38.6211 127.879 39.8921L126.451 44.5603C126.144 45.5666 125.109 46.1622 124.084 45.9231L119.443 44.8398C118.145 44.5368 116.919 45.5645 116.991 46.8956L117.254 51.7414C117.311 52.7943 116.541 53.7107 115.494 53.8355L110.774 54.3984C109.448 54.5566 108.647 55.9458 109.173 57.1733L111.084 61.6238C111.5 62.5943 111.091 63.7215 110.148 64.1978L105.906 66.341C104.712 66.9439 104.435 68.5253 105.352 69.4981L108.682 73.0292C109.407 73.7982 109.408 74.9985 108.685 75.7694L105.432 79.2379C104.519 80.2116 104.798 81.7894 105.989 82.3913L110.358 84.5982C111.301 85.0742 111.711 86.2004 111.295 87.1707L109.438 91.5083C108.913 92.7344 109.712 94.1211 111.036 94.2812L115.884 94.8675C116.931 94.994 117.699 95.9105 117.641 96.9626L117.382 101.689C117.309 103.021 118.535 104.049 119.834 103.746L124.588 102.635C125.614 102.396 126.651 102.994 126.957 104.003L128.329 108.53C128.716 109.806 130.22 110.354 131.337 109.625L135.43 106.953C136.311 106.378 137.487 106.583 138.12 107.423L140.984 111.222C141.785 112.285 143.382 112.283 144.181 111.218L147.114 107.307C147.745 106.465 148.92 106.257 149.802 106.829L153.812 109.43C154.927 110.154 156.424 109.608 156.813 108.337L158.241 103.669C158.548 102.663 159.583 102.067 160.608 102.306L165.249 103.39C166.547 103.693 167.773 102.665 167.701 101.334L167.438 96.4881C167.381 95.4351 168.151 94.5188 169.198 94.3939L173.926 93.8301C175.25 93.6722 176.051 92.2874 175.529 91.0606L173.631 86.6028Z" fill="#2DC275"/>
<ellipse opacity="0.2" cx="91.5917" cy="164.884" rx="52.6923" ry="10" fill="black"/>
<path d="M122.476 101.579L118.188 101.221L117.423 110.382L121.711 110.74L122.476 101.579Z" fill="#FFD530" stroke="#2A2D34" stroke-width="2" stroke-miterlimit="10" stroke-linecap="round" stroke-linejoin="round"/>
<path d="M69.309 117.388C69.309 117.388 38.2231 134.745 36.453 102.671L54.5979 91.4293L72.3269 104.751" fill="#FFD530"/>
<path d="M69.309 117.388C69.309 117.388 38.2231 134.745 36.453 102.671L54.5979 91.4293L72.3269 104.751" stroke="#2A2D34" stroke-width="2" stroke-miterlimit="10" stroke-linecap="round" stroke-linejoin="round"/>
<path d="M53.031 103.925C53.031 103.925 53.0041 102.68 51.6241 99.2279L53.031 103.925Z" fill="white"/>
<path d="M53.031 103.925C53.031 103.925 53.0041 102.68 51.6241 99.2279" stroke="#2A2D34" stroke-width="2" stroke-miterlimit="10" stroke-linecap="round" stroke-linejoin="round"/>
<path d="M120.942 110.938C122.864 127.486 112.513 139.412 99.8023 143.944C83.5506 149.751 63.054 141.366 58.418 119.324C57.5312 112.708 56.6445 106.091 55.7605 99.4425L118.285 91.0563L120.942 110.938Z" fill="#FFD530"/>
<path d="M57.6259 113.533C57.4213 121.858 58.9144 129.048 64.3192 135.616C69.9325 142.431 78.8165 146.509 86.8805 148.655" fill="#FFD530"/>
<path d="M57.6259 113.533C57.4213 121.858 58.9144 129.048 64.3192 135.616C69.9325 142.431 78.8165 146.509 86.8805 148.655" stroke="#2A2D34" stroke-width="2" stroke-miterlimit="10" stroke-linecap="round" stroke-linejoin="round"/>
<path d="M95.5302 115.194C97.1446 124.848 92.3076 136.94 84.7599 138.403C79.4403 139.43 74.1921 134.903 72.4192 133.414C67.7204 129.358 66.0484 124.312 65.4776 122.138C62.8778 112.14 66.7976 97.7147 75.2062 95.7346C83.4794 93.8086 93.7482 104.414 95.5302 115.194Z" fill="white"/>
<path d="M100.629 151.275C100.24 151.635 108.433 154.184 112.762 155.232C112.762 155.232 113.722 160.186 119.388 158.926C125.52 157.574 139.508 137.741 124.36 132.682" fill="#FFD530"/>
<path d="M100.629 151.275C100.24 151.635 108.433 154.184 112.762 155.232C112.762 155.232 113.722 160.186 119.388 158.926C125.52 157.574 139.508 137.741 124.36 132.682" stroke="#2A2D34" stroke-width="2" stroke-miterlimit="10" stroke-linecap="round" stroke-linejoin="round"/>
<path d="M91.9995 133.97C84.0482 136.74 73.8171 142.526 73.2299 156.216C73.2299 156.216 65.9008 162.113 73.7072 166.56C77.9244 168.94 87.3964 169.895 93.6855 167.051C97.1535 165.476 100.31 163.319 101.654 159.767C102.204 158.276 102.921 158.303 104.231 156.712C106.487 153.989 109.086 152.636 110.545 152.005C113.653 150.825 124.846 143.321 126.938 130.803C129.03 118.286 124.441 103.117 124.441 103.117" fill="#FFD530"/>
<path d="M91.9995 133.97C84.0482 136.74 73.8171 142.526 73.2299 156.216C73.2299 156.216 65.9008 162.113 73.7072 166.56C77.9244 168.94 87.3964 169.895 93.6855 167.051C97.1535 165.476 100.31 163.319 101.654 159.767C102.204 158.276 102.921 158.303 104.231 156.712C106.487 153.989 109.086 152.636 110.545 152.005C113.653 150.825 124.846 143.321 126.938 130.803C129.03 118.286 124.441 103.117 124.441 103.117" stroke="#2A2D34" stroke-width="2" stroke-miterlimit="10" stroke-linecap="round" stroke-linejoin="round"/>
<path d="M119.82 47.6132C107.619 28.7995 86.3142 30.8801 74.9657 33.2035C74.9332 33.2008 74.898 33.2305 74.8655 33.2278C74.833 33.2251 74.7978 33.2549 74.7653 33.2522C63.3816 35.6053 43.015 42.1149 39.2049 64.2365C34.3487 92.6168 57.444 101.611 57.444 101.611C61.4314 102.435 66.3446 103.14 71.9645 103.216C78.6645 103.285 84.4254 102.458 88.8895 101.49C93.378 100.621 98.9982 99.1281 105.114 96.4005C110.277 94.1166 114.517 91.5267 117.82 89.1856C117.852 89.1884 135.497 71.7876 119.82 47.6132Z" fill="white"/>
<path d="M72.2639 48.7118C82.516 46.5913 80.129 57.939 82.3452 63.1289C84.5614 68.3188 86.9874 65.5119 100.334 60.4115C113.072 55.5545 125.698 68.8757 126.334 70.2699C126.869 63.8705 125.516 56.1686 119.952 47.5915C107.63 28.6695 86.1517 30.8665 74.8329 33.225C63.5169 35.5511 42.8931 42.0065 39.1046 64.2608C37.3811 74.3228 39.1637 81.9625 42.1919 87.6127C42.2193 86.1103 37.4494 71.1555 51.0715 70.5921C65.3813 70.0208 68.7135 71.6402 68.6955 65.9797C68.6776 60.3192 62.0117 50.8323 72.2639 48.7118Z" fill="#FFD530"/>
<path d="M63.7807 74.3031C63.7807 74.3031 67.0397 75.6221 69.9963 73.5138C72.9528 71.4055 73.0504 70.6286 76.4127 69.928C79.775 69.2275 81.2665 70.1698 84.8018 70.923C88.3344 71.7087 91.0583 68.8614 91.0583 68.8614" stroke="#2A2D34" stroke-width="2" stroke-miterlimit="10" stroke-linecap="round" stroke-linejoin="round"/>
<path d="M79.3969 64.7473C79.3996 64.7148 79.4321 64.7175 79.4348 64.685C80.2418 63.2477 79.2783 61.4663 77.6162 61.3929C76.574 61.3385 75.483 61.4764 74.6844 61.6387C73.8858 61.801 72.8462 62.1067 71.8932 62.5505C70.3934 63.2757 70.1927 65.2871 71.5163 66.2808C71.5487 66.2835 71.546 66.316 71.5785 66.3187C74.131 68.2656 77.7911 67.5245 79.3969 64.7473Z" fill="#2DC275" stroke="#2A2D34" stroke-width="2" stroke-miterlimit="10"/>
<path d="M89.6686 57.9609L85.0532 61.0378L90.4378 61.807" stroke="#2A2D34" stroke-width="2" stroke-linecap="round" stroke-linejoin="round"/>
<path d="M59.569 65.7891C59.5686 65.7892 59.5683 65.7893 59.5679 65.7894L59.569 65.7891ZM62.9345 66.9881C61.7335 67.2116 60.5783 66.6747 59.9516 65.7124L65.1745 64.665C64.9717 65.7857 64.1085 66.7334 62.9345 66.9881Z" fill="#2A2D34" stroke="#2A2D34" stroke-width="2"/>
<path d="M117.952 89.164C114.95 91.432 104.9 98.1817 88.8895 101.49C72.8792 104.797 60.9955 102.562 57.3086 101.665C57.3086 101.665 34.2133 92.6709 39.0695 64.2906C42.8905 42.0391 63.4818 35.5809 74.7978 33.2549C86.1139 30.9288 107.595 28.6993 119.882 47.6511C135.598 71.7633 117.952 89.164 117.952 89.164Z" stroke="#2A2D34" stroke-width="2" stroke-miterlimit="10" stroke-linecap="round" stroke-linejoin="round"/>
<path d="M50.4644 44.5688C50.4644 44.5688 43.6537 43.0841 40.0496 48.2459C36.4456 53.4077 38.4128 58.0534 39.36 59.2447C41.195 61.5569 49.868 64.6364 52.5675 61.6888C55.5865 58.4409 50.9889 48.8651 50.9889 48.8651" fill="#FFD530"/>
<path d="M50.4644 44.5688C50.4644 44.5688 43.6537 43.0841 40.0496 48.2459C36.4456 53.4077 38.4128 58.0534 39.36 59.2447C41.195 61.5569 49.868 64.6364 52.5675 61.6888C55.5865 58.4409 50.9889 48.8651 50.9889 48.8651" stroke="#2A2D34" stroke-width="2" stroke-miterlimit="10" stroke-linecap="round" stroke-linejoin="round"/>
<path d="M101.722 33.9987C101.722 33.9987 107.394 29.9255 112.776 33.2535C118.157 36.5815 118.161 41.6194 117.744 43.0893C116.983 45.937 110.214 52.1756 106.554 50.5615C102.518 48.7525 102.945 38.157 102.945 38.157" fill="#FFD530"/>
<path d="M101.722 33.9987C101.722 33.9987 107.394 29.9255 112.776 33.2535C118.157 36.5815 118.161 41.6194 117.744 43.0893C116.983 45.937 110.214 52.1756 106.554 50.5615C102.518 48.7525 102.945 38.157 102.945 38.157" stroke="#2A2D34" stroke-width="2" stroke-miterlimit="10" stroke-linecap="round" stroke-linejoin="round"/>
<path d="M89.6605 105.185C72.5862 108.698 62.1697 106.913 58.1688 105.859L57.3087 101.665C60.9604 102.592 72.8793 104.797 88.8896 101.49C104.897 98.2142 114.982 91.4347 117.985 89.1667L118.845 93.3601C115.591 95.9015 106.735 101.671 89.6605 105.185Z" fill="#2DC275" stroke="#2A2D34" stroke-width="2" stroke-miterlimit="10" stroke-linecap="round" stroke-linejoin="round"/>
<path d="M81.1211 111.079L78.6058 113.781C77.8855 114.571 76.6727 114.601 75.8824 113.88L73.1812 111.365C72.3908 110.645 72.3613 109.432 73.0815 108.642L75.5969 105.94C76.3171 105.15 77.5299 105.12 78.3202 105.841L81.0214 108.356C81.8118 109.076 81.8414 110.289 81.1211 111.079Z" fill="#FFD530" stroke="#2A2D34" stroke-width="2" stroke-miterlimit="10" stroke-linecap="round" stroke-linejoin="round"/>
<path d="M52.3483 90.9471C52.3483 90.9471 46.4464 93.4636 46.917 96.0544C47.3551 98.6424 49.4908 99.704 53.3487 97.7691C57.2067 95.8342 58.713 89.5486 52.3483 90.9471Z" fill="#FFD530" stroke="#2A2D34" stroke-width="2" stroke-miterlimit="10" stroke-linecap="round" stroke-linejoin="round"/>
<path d="M48.5588 99.7801C52.5941 93.9686 51.9814 86.5606 47.1902 83.2338C42.399 79.907 35.2438 81.9212 31.2085 87.7327C27.1732 93.5442 27.786 100.952 32.5771 104.279C37.3683 107.606 44.5235 105.592 48.5588 99.7801Z" fill="#FFD530" stroke="#2A2D34" stroke-width="2" stroke-miterlimit="10" stroke-linecap="round" stroke-linejoin="round"/>
<path d="M124.426 113.486C128.419 110.712 132.803 107.97 143.979 98.3051C157.977 86.1934 144.828 73.6463 135.639 79.0941C122.939 86.6365 110.817 98.2179 110.817 98.2179" fill="#FFD530"/>
<path d="M124.426 113.486C128.419 110.712 132.803 107.97 143.979 98.3051C157.977 86.1934 144.828 73.6463 135.639 79.0941C122.939 86.6365 110.817 98.2179 110.817 98.2179" stroke="#2A2D34" stroke-width="2" stroke-miterlimit="10" stroke-linecap="round" stroke-linejoin="round"/>
<path d="M27.7455 82.5763C27.3885 82.5763 27.0461 82.4344 26.7936 82.182C26.5412 81.9295 26.3993 81.5871 26.3993 81.2301C26.3993 79.802 25.832 78.4324 24.8222 77.4226C23.8124 76.4128 22.4428 75.8455 21.0147 75.8455C20.6577 75.8455 20.3153 75.7037 20.0629 75.4512C19.8104 75.1988 19.6686 74.8564 19.6686 74.4993C19.6686 74.1423 19.8104 73.7999 20.0629 73.5475C20.3153 73.295 20.6577 73.1532 21.0147 73.1532C22.4428 73.1532 23.8124 72.5859 24.8222 71.5761C25.832 70.5663 26.3993 69.1967 26.3993 67.7686C26.3993 67.4116 26.5412 67.0692 26.7936 66.8167C27.0461 66.5643 27.3885 66.4224 27.7455 66.4224C28.1025 66.4224 28.4449 66.5643 28.6974 66.8167C28.9498 67.0692 29.0917 67.4116 29.0917 67.7686C29.0917 69.1967 29.659 70.5663 30.6688 71.5761C31.6786 72.5859 33.0482 73.1532 34.4763 73.1532C34.8333 73.1532 35.1757 73.295 35.4281 73.5475C35.6806 73.7999 35.8224 74.1423 35.8224 74.4993C35.8224 74.8564 35.6806 75.1988 35.4281 75.4512C35.1757 75.7037 34.8333 75.8455 34.4763 75.8455C33.0482 75.8455 31.6786 76.4128 30.6688 77.4226C29.659 78.4324 29.0917 79.802 29.0917 81.2301C29.0917 81.5871 28.9498 81.9295 28.6974 82.182C28.4449 82.4344 28.1025 82.5763 27.7455 82.5763Z" fill="#FFD530"/>
<path d="M156.592 59.4993C156.354 59.4993 156.125 59.4048 155.957 59.2365C155.789 59.0682 155.694 58.8399 155.694 58.6019C155.694 57.6498 155.316 56.7368 154.643 56.0636C153.97 55.3904 153.057 55.0122 152.105 55.0122C151.867 55.0122 151.638 54.9176 151.47 54.7493C151.302 54.581 151.207 54.3527 151.207 54.1147C151.207 53.8767 151.302 53.6484 151.47 53.4801C151.638 53.3118 151.867 53.2173 152.105 53.2173C153.057 53.2173 153.97 52.8391 154.643 52.1659C155.316 51.4927 155.694 50.5796 155.694 49.6275C155.694 49.3895 155.789 49.1613 155.957 48.993C156.125 48.8247 156.354 48.7301 156.592 48.7301C156.83 48.7301 157.058 48.8247 157.226 48.993C157.395 49.1613 157.489 49.3895 157.489 49.6275C157.489 50.5796 157.867 51.4927 158.541 52.1659C159.214 52.8391 160.127 53.2173 161.079 53.2173C161.317 53.2173 161.545 53.3118 161.714 53.4801C161.882 53.6484 161.976 53.8767 161.976 54.1147C161.976 54.3527 161.882 54.581 161.714 54.7493C161.545 54.9176 161.317 55.0122 161.079 55.0122C160.127 55.0122 159.214 55.3904 158.541 56.0636C157.867 56.7368 157.489 57.6498 157.489 58.6019C157.489 58.8399 157.395 59.0682 157.226 59.2365C157.058 59.4048 156.83 59.4993 156.592 59.4993Z" fill="white"/>
<path d="M162.361 66.4224C162.174 66.4224 161.995 66.3481 161.862 66.2159C161.73 66.0837 161.656 65.9043 161.656 65.7173C161.656 64.9692 161.359 64.2518 160.83 63.7229C160.301 63.1939 159.583 62.8968 158.835 62.8968C158.648 62.8968 158.469 62.8225 158.337 62.6902C158.205 62.558 158.13 62.3787 158.13 62.1916C158.13 62.0046 158.205 61.8253 158.337 61.693C158.469 61.5608 158.648 61.4865 158.835 61.4865C159.583 61.4865 160.301 61.1894 160.83 60.6604C161.359 60.1315 161.656 59.4141 161.656 58.666C161.656 58.479 161.73 58.2996 161.862 58.1674C161.995 58.0352 162.174 57.9609 162.361 57.9609C162.548 57.9609 162.727 58.0352 162.86 58.1674C162.992 58.2996 163.066 58.479 163.066 58.666C163.066 59.4141 163.363 60.1315 163.892 60.6604C164.421 61.1894 165.139 61.4865 165.887 61.4865C166.074 61.4865 166.253 61.5608 166.385 61.693C166.517 61.8253 166.592 62.0046 166.592 62.1916C166.592 62.3787 166.517 62.558 166.385 62.6902C166.253 62.8225 166.074 62.8968 165.887 62.8968C165.139 62.8968 164.421 63.1939 163.892 63.7229C163.363 64.2518 163.066 64.9692 163.066 65.7173C163.066 65.9043 162.992 66.0837 162.86 66.2159C162.727 66.3481 162.548 66.4224 162.361 66.4224Z" fill="white"/>
<path d="M144.971 59.7447L145.822 60.2691L144.971 59.7447C144.91 59.8426 144.797 59.9326 144.568 59.924C144.336 59.9153 144.22 59.8236 144.167 59.7479C144.003 59.5165 143.765 59.2023 143.455 58.9464C143.139 58.6856 142.671 58.4224 142.074 58.4495C141.548 58.4735 141.138 58.7147 140.851 58.967C140.57 59.2137 140.363 59.5081 140.217 59.7449L141.069 60.2693L140.217 59.7449C140.157 59.8429 140.044 59.9329 139.815 59.9242C139.583 59.9155 139.467 59.8238 139.413 59.7481C139.25 59.5167 139.011 59.2025 138.701 58.9467C138.385 58.6859 137.917 58.4226 137.321 58.4498C136.794 58.4737 136.385 58.7149 136.098 58.9672C135.817 59.214 135.61 59.5083 135.464 59.7451C135.403 59.8431 135.29 59.9331 135.061 59.9245C134.81 59.915 134.694 59.8094 134.643 59.7219L133.843 60.1851L134.643 59.7219C134.504 59.4811 134.302 59.1751 134.023 58.9176C133.738 58.6544 133.32 58.394 132.773 58.3733C131.726 58.3339 130.855 59.1699 130.851 60.2174L130.761 88.0184C130.757 89.0322 131.558 89.8663 132.571 89.9045C133.126 89.9255 133.571 89.6943 133.882 89.4467C134.186 89.2045 134.415 88.9059 134.577 88.6659C134.637 88.5767 134.748 88.4918 134.971 88.5002L135.008 87.5009L134.971 88.5002C135.202 88.5089 135.318 88.6006 135.372 88.6763L136.119 88.1478L135.372 88.6763C135.536 88.9077 135.774 89.2219 136.084 89.4778C136.4 89.7385 136.868 90.0018 137.464 89.9746C137.991 89.9507 138.401 89.7095 138.688 89.4572C138.968 89.2104 139.176 88.9161 139.321 88.6793C139.382 88.5813 139.495 88.4913 139.724 88.4999L139.762 87.5006L139.724 88.4999C139.956 88.5087 140.072 88.6003 140.125 88.676C140.289 88.9075 140.528 89.2217 140.838 89.4775C141.153 89.7383 141.621 90.0015 142.218 89.9744C142.744 89.9504 143.154 89.7093 143.441 89.457C143.722 89.2102 143.929 88.9158 144.075 88.679C144.135 88.5811 144.249 88.4911 144.478 88.4997C144.709 88.5084 144.825 88.6001 144.879 88.6758C145.043 88.9072 145.281 89.2214 145.591 89.4773C145.907 89.7381 146.375 90.0013 146.971 89.9742C147.498 89.9502 147.908 89.709 148.195 89.4567C148.475 89.21 148.683 88.9156 148.828 88.6788C148.889 88.5808 149.002 88.4908 149.231 88.4994L149.269 87.5002L149.231 88.4994C149.482 88.5089 149.599 88.6146 149.649 88.702C149.789 88.9429 149.991 89.2488 150.269 89.5064C150.554 89.7695 150.972 90.03 151.52 90.0506C152.566 90.09 153.437 89.254 153.441 88.2065L153.532 60.4055C153.535 59.3917 152.734 58.5576 151.721 58.5194C151.166 58.4985 150.721 58.7297 150.411 58.9772C150.107 59.2195 149.877 59.518 149.715 59.7581C149.655 59.8473 149.544 59.9322 149.322 59.9238C149.09 59.915 148.974 59.8233 148.92 59.7477L148.13 60.3072L148.92 59.7477C148.757 59.5162 148.518 59.202 148.208 58.9462C147.892 58.6854 147.424 58.4221 146.828 58.4493L146.873 59.4483L146.828 58.4493C146.301 58.4732 145.892 58.7144 145.605 58.9667C145.324 59.2135 145.117 59.5079 144.971 59.7447Z" fill="white" stroke="#2A2D34" stroke-width="2" stroke-miterlimit="10" stroke-linecap="round" stroke-linejoin="round"/>
<path d="M131.12 82.7802L153.091 82.8608" stroke="#2A2D34" stroke-width="2" stroke-linecap="round" stroke-linejoin="round" stroke-dasharray="4 4"/>
<path d="M147.322 63.751L137.273 63.6941C136.168 63.6878 135.268 64.5782 135.262 65.6827L135.205 75.7322C135.198 76.8367 136.089 77.7372 137.193 77.7435L147.243 77.8004C148.347 77.8067 149.248 76.9163 149.254 75.8118L149.311 65.7623C149.317 64.6578 148.427 63.7573 147.322 63.751Z" fill="#FFD530"/>
</svg>
