<svg width="46" height="46" viewBox="0 0 46 46" fill="none" xmlns="http://www.w3.org/2000/svg">
<g clip-path="url(#clip0_12466_133)">
<path fill-rule="evenodd" clip-rule="evenodd" d="M23 42.1666C33.5855 42.1666 42.1667 33.5854 42.1667 23C42.1667 12.4145 33.5855 3.83331 23 3.83331C12.4146 3.83331 3.83337 12.4145 3.83337 23C3.83337 33.5854 12.4146 42.1666 23 42.1666ZM32.3608 20.8608C33.2964 19.9251 33.2964 18.4082 32.3608 17.4725C31.4252 16.5369 29.9082 16.5369 28.9726 17.4725L21.0834 25.3618L17.0275 21.3059C16.0919 20.3702 14.5749 20.3702 13.6393 21.3059C12.7036 22.2415 12.7036 23.7585 13.6393 24.6941L19.3893 30.4441C20.3249 31.3797 21.8419 31.3797 22.7775 30.4441L32.3608 20.8608Z" fill="#2DC275"/>
<path fill-rule="evenodd" clip-rule="evenodd" d="M23 42.1666C33.5855 42.1666 42.1667 33.5854 42.1667 23C42.1667 12.4145 33.5855 3.83331 23 3.83331C12.4146 3.83331 3.83337 12.4145 3.83337 23C3.83337 33.5854 12.4146 42.1666 23 42.1666ZM32.3608 20.8608C33.2964 19.9251 33.2964 18.4082 32.3608 17.4725C31.4252 16.5369 29.9082 16.5369 28.9726 17.4725L21.0834 25.3618L17.0275 21.3059C16.0919 20.3702 14.5749 20.3702 13.6393 21.3059C12.7036 22.2415 12.7036 23.7585 13.6393 24.6941L19.3893 30.4441C20.3249 31.3797 21.8419 31.3797 22.7775 30.4441L32.3608 20.8608Z" fill="#2DC275"/>
</g>
<defs>
<clipPath id="clip0_12466_133">
<rect width="38.3333" height="38.3333" fill="white" transform="translate(3.83337 3.83331)"/>
</clipPath>
</defs>
</svg>
